<?xml version="1.0" encoding="UTF-8" standalone="no"?>
<svg
   xmlns:dc="http://purl.org/dc/elements/1.1/"
   xmlns:cc="http://creativecommons.org/ns#"
   xmlns:rdf="http://www.w3.org/1999/02/22-rdf-syntax-ns#"
   xmlns:svg="http://www.w3.org/2000/svg"
   xmlns="http://www.w3.org/2000/svg"
   xmlns:sodipodi="http://sodipodi.sourceforge.net/DTD/sodipodi-0.dtd"
   xmlns:inkscape="http://www.inkscape.org/namespaces/inkscape"
   enable-background="new 0 0 123.9 120.1"
   version="1.1"
   viewBox="0 0 51.999999 52.000001"
   id="svg8"
   sodipodi:docname="phone-2374915.svg"
   width="52"
   height="52"
   inkscape:version="0.92.5 (2060ec1f9f, 2020-04-08)">
  <metadata
     id="metadata14">
    <rdf:RDF>
      <cc:Work
         rdf:about="">
        <dc:format>image/svg+xml</dc:format>
        <dc:type
           rdf:resource="http://purl.org/dc/dcmitype/StillImage" />
        <dc:title></dc:title>
      </cc:Work>
    </rdf:RDF>
  </metadata>
  <defs
     id="defs12" />
  <sodipodi:namedview
     pagecolor="#ffffff"
     bordercolor="#666666"
     borderopacity="1"
     objecttolerance="10"
     gridtolerance="10"
     guidetolerance="10"
     inkscape:pageopacity="0"
     inkscape:pageshadow="2"
     inkscape:window-width="1848"
     inkscape:window-height="1016"
     id="namedview10"
     showgrid="false"
     inkscape:zoom="7.8601167"
     inkscape:cx="68.532703"
     inkscape:cy="44.945046"
     inkscape:window-x="72"
     inkscape:window-y="27"
     inkscape:window-maximized="1"
     inkscape:current-layer="g823" />
  <style
     type="text/css"
     id="style2">.st0{fill:#494547;} .st1{fill:#FFFFFF;}</style>
  <g
     id="g823"
     transform="translate(-35.8,33.599998)">
    <path
       style="fill:#ffffff"
       inkscape:connector-curvature="0"
       id="path4"
       d="m 61.8,-33.599998 c -14.4,0 -26,11.6 -26,25.9999995 0,14.4 11.6,26.0000005 26,26.0000005 14.4,0 26,-11.6000005 26,-26.0000005 0,-14.3999995 -11.6,-25.9999995 -26,-25.9999995 z"
       class="st0" />
    <path
       style="fill:#5f5fd3"
       inkscape:connector-curvature="0"
       id="path6"
       d="m 73,-4.1999985 c -1.5,4.90000003 -3,9.8 -4.4,14.7000005 -0.5,1.6 -1.6,2.5 -3.1,2.8 -0.5,0.1 -1.1,0.1 -1.6,-0.1 -5,-1.5 -10,-3 -15,-4.6000005 -1,-0.3 -1.7,-1 -2.2,-1.9 -0.4,-0.8 -0.6,-1.6 -0.4,-2.4 0,-0.2 0.1,-0.4 0.1,-0.5 3,-9.8 6,-19.6999995 8.9,-29.4999995 0.6,-1.9 2.4,-2.8 3.7,-2.8 0.4,0 0.7,0.1 1.1,0.2 2.4,0.7 4.8,1.4 7.2,2.2 2.5,0.8 5.1,1.5 7.6,2.3 1.6,0.5 2.7,1.8 2.8,3.5 0,0.5 0,1 -0.2,1.5 -1.5,4.8 -3,9.6999995 -4.5,14.5999995 z M 53.6,-10.099998 c -1,3.2999995 -2,6.4999995 -3,9.79999953 0,0.1 -0.1,0.2999999958789 -0.1,0.4 -0.1,0.5 0.1,0.99999997 0.6,1.19999997 4.9,1.5 9.9,3 14.8,4.5 0.2,0.1 0.4,0.1 0.6,0 0.3,-0.1 0.5,-0.4 0.6,-0.7 2,-6.7 4.1,-13.5 6.1,-20.1999995 v -0.6 c -0.1,-0.4 -0.4,-0.6 -0.7,-0.7 -4.9,-1.5 -9.7,-2.9 -14.6,-4.4 h -0.5 c -0.4,0.1 -0.6,0.3 -0.8,0.7 -0.9,3.3 -2,6.7 -3,10 z m 1.6,16.5999995 c -0.4,1.3 0.3,2.6 1.6,3 1.3,0.4 2.6,-0.3 3,-1.6 0.4,-1.3 -0.3,-2.6 -1.6,-3 -1.3,-0.4 -2.7,0.3 -3,1.6 z M 66.1,-21.399998 c 0.7,0.2 1.5,0.4 2.2,0.7 0.1,0 0.2,0 0.2,0.1 0.2,0 0.3,0 0.4,-0.2 0.2,-0.4 0.1,-0.6 -0.3,-0.8 h -0.1 c -1.5,-0.4 -2.9,-0.9 -4.4,-1.3 -0.1,0 -0.2,0 -0.3,-0.1 -0.2,0 -0.3,0 -0.4,0.2 -0.2,0.4 -0.1,0.7 0.3,0.8 h 0.1 c 0.9,0.1 1.6,0.4 2.3,0.6 z"
       class="st1" />
  </g>
</svg>
